HIERARCHY
ROOT Hips
{
  OFFSET 53.8105 85.9249 50.9953
  CHANNELS 6 Xposition Yposition Zposition Zrotation Xrotation Yrotation
  JOINT spine
  {
    OFFSET 0 6.3926 0.367606
    CHANNELS 3 Zrotation Xrotation Yrotation
    JOINT spine1
    {
      OFFSET 0 9.17611 0
      CHANNELS 3 Zrotation Xrotation Yrotation
      JOINT spine2
      {
        OFFSET 0 8.79238 0
        CHANNELS 3 Zrotation Xrotation Yrotation
        JOINT Neck
        {
          OFFSET 0 22.5737 1.07624
          CHANNELS 3 Zrotation Xrotation Yrotation
          JOINT Head
          {
            OFFSET 0 6.82011 0
            CHANNELS 3 Zrotation Xrotation Yrotation
            End Site
            {
              OFFSET 0 16.5085 -5.44427
            }
          }
        }
        JOINT RightShoulder
        {
          OFFSET -3.70221 9.49509 -0.515508
          CHANNELS 3 Zrotation Xrotation Yrotation
          JOINT RightArm
          {
            OFFSET 0 12.4537 0
            CHANNELS 3 Zrotation Xrotation Yrotation
            JOINT RightArmRoll
            {
              OFFSET 0 6.28686 0
              CHANNELS 3 Zrotation Xrotation Yrotation
              JOINT RightForeArm
              {
                OFFSET 0 18.3114 0
                CHANNELS 3 Zrotation Xrotation Yrotation
                JOINT RightForeArmRoll
                {
                  OFFSET 0 7.05482 0
                  CHANNELS 3 Zrotation Xrotation Yrotation
                  JOINT RightHand
                  {
                    OFFSET 0 14.1575 0
                    CHANNELS 3 Zrotation Xrotation Yrotation
                    End Site
                    {
                      OFFSET 0 0 0
                    }
                  }
                }
              }
            }
          }
        }
        JOINT LeftShoulder
        {
          OFFSET 3.70221 9.49509 -0.515508
          CHANNELS 3 Zrotation Xrotation Yrotation
          JOINT LeftArm
          {
            OFFSET 0 12.4537 0
            CHANNELS 3 Zrotation Xrotation Yrotation
            JOINT LeftArmRoll
            {
              OFFSET 0 6.28686 0
              CHANNELS 3 Zrotation Xrotation Yrotation
              JOINT LeftForeArm
              {
                OFFSET 0 18.3114 0
                CHANNELS 3 Zrotation Xrotation Yrotation
                JOINT LeftForeArmRoll
                {
                  OFFSET 0 7.05483 0
                  CHANNELS 3 Zrotation Xrotation Yrotation
                  JOINT LeftHand
                  {
                    OFFSET 0 14.1575 0
                    CHANNELS 3 Zrotation Xrotation Yrotation
                    End Site
                    {
                      OFFSET 0 0 0
                    }
                  }
                }
              }
            }
          }
        }
      }
    }
  }
  JOINT RightUpLeg
  {
    OFFSET -5.66616 -1.03903 -0.87161
    CHANNELS 3 Zrotation Xrotation Yrotation
    JOINT RightUpLegRoll
    {
      OFFSET 0 16.6005 0
      CHANNELS 3 Zrotation Xrotation Yrotation
      JOINT RightLeg
      {
        OFFSET 0 -20.5572 0
        CHANNELS 3 Zrotation Xrotation Yrotation
        JOINT RightLegRoll
        {
          OFFSET 0 20.6244 0
          CHANNELS 3 Zrotation Xrotation Yrotation
          JOINT RightFoot
          {
            OFFSET 0 17.1664 0
            CHANNELS 3 Zrotation Xrotation Yrotation
            JOINT RightToeBase
            {
              OFFSET 0 14.3502 0
              CHANNELS 3 Zrotation Xrotation Yrotation
              End Site
              {
                OFFSET 0.00608252 6.94971 -0.801061
              }
            }
          }
        }
      }
    }
  }
  JOINT LeftUpLeg
  {
    OFFSET 5.66616 -1.03903 -0.87161
    CHANNELS 3 Zrotation Xrotation Yrotation
    JOINT LeftUpLegRoll
    {
      OFFSET 0 16.6006 0
      CHANNELS 3 Zrotation Xrotation Yrotation
      JOINT LeftLeg
      {
        OFFSET 0 20.5571 0
        CHANNELS 3 Zrotation Xrotation Yrotation
        JOINT LeftLegRoll
        {
          OFFSET 0 20.8151 0
          CHANNELS 3 Zrotation Xrotation Yrotation
          JOINT LeftFoot
          {
            OFFSET 0 16.9757 0
            CHANNELS 3 Zrotation Xrotation Yrotation
            JOINT LeftToeBase
            {
              OFFSET 0 14.3502 0
              CHANNELS 3 Zrotation Xrotation Yrotation
              End Site
              {
                OFFSET -0.0272592 6.94971 -0.80106
              }
            }
          }
        }
      }
    }
  }
}
MOTION
Frames: 11
Frame Time: 0.00208333
52.1796 78.3727 34.5539 1.05298 18.2305 4.55194 -0.581281 -0.823583 -0.196229 -1.17536 2.35704 -0.324729 -1.17267 4.00191 -0.305265 5.05437 -6.40327 -0.608844 -1.59647 3.29615 0.0811246 58.714 1.53814 0.996205 115.438 30.3331 -17.3736 1.57809e-006 3.51063e-007 -3.33888e-006 18.9794 18.6388 -3.02919 -6.3232e-006 4.48841e-006 -3 8.02887 -4.95089 0.697422 -50.8735 2.78972 -3.06362 -119.684 28.2356 22.2588 5.47181e-006 -1.32378e-006 6.72415e-006 -16.9405 25.4695 4.78547 1.41058e-005 1.69119e-005 3 -8.02889 -4.95085 -0.697389 171.815 51.9078 5.06986 180 1.52576e-005 179.293 175.649 44.5867 -179.793 4.95125e-006 -4.94268e-006 0.703494 -25.0254 73.6173 25.8936 8.12669 25.2335 -3.48355 -178.26 51.3583 3.0908 -1.07169e-005 -4.64205e-006 -0.787775 -0.138075 -45.2647 0.916151 -4.18653e-007 -4.00229e-006 -1.15244 26.3391 74.8855 -27.862 -8.14376 25.3402 3.34604 
52.1844 78.4422 34.6383 1.07029 18.1343 4.55933 -0.580705 -0.839483 -0.19403 -1.17457 2.32521 -0.32055 -1.17192 3.97009 -0.301095 4.97702 -6.3044 -0.628635 -1.55878 3.31675 0.0553165 58.7328 1.53724 0.99289 115.373 30.3059 -17.2269 1.57809e-006 3.51063e-007 -3.33888e-006 18.9693 18.417 -2.99036 -6.3232e-006 4.48841e-006 -3 8.02887 -4.95089 0.697422 -50.9717 2.79617 -3.05135 -119.585 28.1876 22.1218 5.47181e-006 -1.32378e-006 6.72415e-006 -16.9219 25.3875 4.76533 1.41058e-005 1.69119e-005 3 -8.02889 -4.95085 -0.697389 171.839 51.6357 5.02807 180 1.52576e-005 179.292 175.66 44.4163 -179.799 4.95125e-006 -4.94268e-006 0.700327 -25.0251 73.6219 25.9005 8.12669 25.2335 -3.48355 -178.292 51.0806 3.12495 -1.07169e-005 -4.64205e-006 -0.788647 -0.13958 -45.0796 0.9124 -4.18653e-007 -4.00229e-006 -1.14738 26.3196 74.8752 -27.8425 -8.14397 25.3433 3.342 
52.1904 78.5139 34.7316 1.09025 18.0408 4.56532 -0.580253 -0.856202 -0.192055 -1.174 2.29175 -0.316815 -1.17138 3.93663 -0.297365 4.89019 -6.20005 -0.64686 -1.5143 3.33543 0.0300356 58.752 1.54135 0.992595 115.3 30.2724 -17.0757 1.57809e-006 3.51063e-007 -3.33888e-006 18.958 18.2104 -2.95424 -6.3232e-006 4.48841e-006 -3 8.02887 -4.95089 0.697422 -51.0797 2.80104 -3.03621 -119.477 28.1356 21.981 5.47181e-006 -1.32378e-006 6.72415e-006 -16.9061 25.3107 4.74698 1.41058e-005 1.69119e-005 3 -8.02889 -4.95085 -0.697389 171.858 51.3667 4.98927 180 1.52576e-005 179.292 175.672 44.2457 -179.807 4.95125e-006 -4.94268e-006 0.697128 -25.0234 73.6259 25.9063 8.12669 25.2335 -3.48355 -178.327 50.8046 3.16105 -1.07169e-005 -4.64205e-006 -0.789533 -0.142475 -44.8931 0.90795 -4.18653e-007 -4.00229e-006 -1.1422 26.2987 74.8642 -27.8215 -8.14419 25.3464 3.33783 
52.1934 78.5784 34.8226 1.11239 17.9495 4.57015 -0.579913 -0.87359 -0.190264 -1.17362 2.25696 -0.313443 -1.17103 3.90184 -0.293995 4.79566 -6.09104 -0.663747 -1.46432 3.35242 0.00525036 58.7717 1.54945 0.994702 115.22 30.2331 -16.9211 1.57809e-006 3.51063e-007 -3.33888e-006 18.9457 18.0182 -2.9207 -6.3232e-006 4.48841e-006 -3 8.02887 -4.95089 0.697422 -51.1959 2.80432 -3.01852 -119.362 28.08 21.8376 5.47181e-006 -1.32378e-006 6.72415e-006 -16.8931 25.2385 4.73026 1.41058e-005 1.69119e-005 3 -8.02889 -4.95085 -0.697389 171.873 51.1001 4.95299 180 1.52576e-005 179.291 175.684 44.0749 -179.814 4.95125e-006 -4.94268e-006 0.693904 -25.0202 73.629 25.9111 8.12669 25.2335 -3.48355 -178.364 50.53 3.19859 -1.07169e-005 -4.64205e-006 -0.79043 -0.146538 -44.7053 0.902922 -4.18653e-007 -4.00229e-006 -1.13691 26.2765 74.8526 -27.7992 -8.14441 25.3497 3.33355 
52.2074 78.6378 34.9165 1.13624 17.8599 4.57403 -0.579668 -0.8915 -0.188616 -1.1734 2.22112 -0.310354 -1.17084 3.866 -0.290905 4.69521 -5.97816 -0.679522 -1.4101 3.36798 -0.0190708 58.7917 1.56052 0.99859 115.133 30.1884 -16.7647 1.57809e-006 3.51063e-007 -3.33888e-006 18.9329 17.8399 -2.88962 -6.3232e-006 4.48841e-006 -3 8.02887 -4.95089 0.697422 -51.3183 2.80599 -2.99858 -119.24 28.0212 21.6927 5.47181e-006 -1.32378e-006 6.72415e-006 -16.8827 25.1706 4.715 1.41058e-005 1.69119e-005 3 -8.02889 -4.95085 -0.697389 171.886 50.8354 4.91881 180 1.52576e-005 179.291 175.697 43.9038 -179.822 4.95125e-006 -4.94268e-006 0.690657 -25.0157 73.6315 25.9148 8.12669 25.2335 -3.48355 -178.402 50.2567 3.23704 -1.07169e-005 -4.64205e-006 -0.791334 -0.151554 -44.5164 0.897432 -4.18653e-007 -4.00229e-006 -1.13152 26.2532 74.8402 -27.7755 -8.14463 25.353 3.32919 
52.2147 78.7079 35.0046 1.16134 17.7717 4.57719 -0.579504 -0.909784 -0.187071 -1.17331 2.18454 -0.307466 -1.17077 3.82941 -0.288016 4.59064 -5.86222 -0.694412 -1.3529 3.38234 -0.0429597 58.8119 1.57352 1.00364 115.041 30.139 -16.6076 1.57809e-006 3.51063e-007 -3.33888e-006 18.9198 17.6748 -2.86086 -6.3232e-006 4.48841e-006 -3 8.02887 -4.95089 0.697422 -51.4453 2.80605 -2.97671 -119.114 27.9594 21.5474 5.47181e-006 -1.32378e-006 6.72415e-006 -16.8748 25.1064 4.70105 1.41058e-005 1.69119e-005 3 -8.02889 -4.95085 -0.697389 171.896 50.5723 4.88632 180 1.52576e-005 179.291 175.71 43.7323 -179.83 4.95125e-006 -4.94268e-006 0.687393 -25.0101 73.6333 25.9176 8.12669 25.2335 -3.48355 -178.442 49.9843 3.27591 -1.07169e-005 -4.64205e-006 -0.792241 -0.157308 -44.3265 0.891599 -4.18653e-007 -4.00229e-006 -1.12606 26.2288 74.8273 -27.7508 -8.14486 25.3563 3.32477 
52.2188 78.7744 35.0964 1.18723 17.6843 4.57984 -0.579407 -0.928294 -0.185588 -1.17331 2.1475 -0.3047 -1.17079 3.79238 -0.285246 4.48372 -5.744 -0.708642 -1.294 3.39574 -0.0664477 58.8323 1.58742 1.00924 114.945 30.0854 -16.4513 1.57809e-006 3.51063e-007 -3.33888e-006 18.9068 17.5223 -2.83431 -6.3232e-006 4.48841e-006 -3 8.02887 -4.95089 0.697422 -51.5749 2.80448 -2.95322 -118.984 27.8951 21.4026 5.47181e-006 -1.32378e-006 6.72415e-006 -16.8692 25.0453 4.68825 1.41058e-005 1.69119e-005 3 -8.02889 -4.95085 -0.697389 171.905 50.3102 4.85511 180 1.52576e-005 179.29 175.724 43.5604 -179.838 4.95125e-006 -4.94268e-006 0.684117 -25.0035 73.6345 25.9194 8.12669 25.2335 -3.48355 -178.481 49.7125 3.31469 -1.07169e-005 -4.64205e-006 -0.793149 -0.163586 -44.136 0.885536 -4.18653e-007 -4.00229e-006 -1.12053 26.2036 74.8138 -27.725 -8.14509 25.3597 3.32032 
52.2335 78.8331 35.1875 1.21343 17.5974 4.58221 -0.579361 -0.946882 -0.184128 -1.17338 2.11031 -0.301975 -1.17088 3.75518 -0.282516 4.37624 -5.62431 -0.722439 -1.23466 3.40844 -0.0895667 58.8528 1.60121 1.01477 114.847 30.0282 -16.297 1.57809e-006 3.51063e-007 -3.33888e-006 18.8943 17.3819 -2.80986 -6.3232e-006 4.48841e-006 -3 8.02887 -4.95089 0.697422 -51.7054 2.80127 -2.92843 -118.854 27.8285 21.2596 5.47181e-006 -1.32378e-006 6.72415e-006 -16.8658 24.987 4.67642 1.41058e-005 1.69119e-005 3 -8.02889 -4.95085 -0.697389 171.913 50.0485 4.82479 180 1.52576e-005 179.29 175.737 43.3879 -179.846 4.95125e-006 -4.94268e-006 0.680832 -24.996 73.6351 25.9204 8.12669 25.2335 -3.48355 -178.521 49.4412 3.35291 -1.07169e-005 -4.64205e-006 -0.794052 -0.17018 -43.9449 0.879356 -4.18653e-007 -4.00229e-006 -1.11495 26.1775 74.7998 -27.6984 -8.14532 25.3631 3.31586 
52.2338 78.8949 35.2803 1.2395 17.5105 4.58453 -0.579352 -0.965401 -0.18265 -1.17348 2.07326 -0.29921 -1.171 3.71813 -0.279746 4.26999 -5.50395 -0.73603 -1.17614 3.42068 -0.112348 58.8732 1.61384 1.0196 114.748 29.9679 -16.1461 1.57809e-006 3.51063e-007 -3.33888e-006 18.8826 17.2528 -2.78739 -6.3232e-006 4.48841e-006 -3 8.02887 -4.95089 0.697422 -51.8351 2.79642 -2.90264 -118.724 27.7601 21.1194 5.47181e-006 -1.32378e-006 6.72415e-006 -16.8645 24.9308 4.66543 1.41058e-005 1.69119e-005 3 -8.02889 -4.95085 -0.697389 171.92 49.7869 4.79498 180 1.52576e-005 179.29 175.75 43.2149 -179.854 4.95125e-006 -4.94268e-006 0.677544 -24.9877 73.6351 25.9205 8.12669 25.2335 -3.48355 -178.559 49.1701 3.39009 -1.07169e-005 -4.64205e-006 -0.794948 -0.176879 -43.7534 0.873173 -4.18653e-007 -4.00229e-006 -1.10935 26.1506 74.7853 -27.6709 -8.14555 25.3664 3.31142 
52.2482 78.9629 35.366 1.26496 17.4231 4.587 -0.579366 -0.983703 -0.181113 -1.17358 2.03664 -0.296324 -1.17113 3.68151 -0.276855 4.16675 -5.38372 -0.749639 -1.11972 3.43269 -0.134825 58.8935 1.62429 1.02312 114.648 29.9052 -15.9998 1.57809e-006 3.51063e-007 -3.33888e-006 18.8722 17.1346 -2.76678 -6.3232e-006 4.48841e-006 -3 8.02887 -4.95089 0.697422 -51.962 2.78991 -2.87616 -118.595 27.6901 20.983 5.47181e-006 -1.32378e-006 6.72415e-006 -16.8651 24.8763 4.6551 1.41058e-005 1.69119e-005 3 -8.02889 -4.95085 -0.697389 171.928 49.5248 4.7653 180 1.52576e-005 179.29 175.762 43.0411 -179.862 4.95125e-006 -4.94268e-006 0.674257 -24.9788 73.6346 25.9198 8.12669 25.2335 -3.48355 -178.595 48.8988 3.42576 -1.07169e-005 -4.64205e-006 -0.795832 -0.18348 -43.5618 0.867095 -4.18653e-007 -4.00229e-006 -1.10372 26.1232 74.7704 -27.6429 -8.14577 25.3698 3.30702 
52.2572 79.0234 35.4595 1.28937 17.3348 4.58986 -0.579386 -1.00164 -0.179477 -1.17365 2.00075 -0.293238 -1.17122 3.64562 -0.273764 4.06832 -5.26442 -0.763493 -1.06665 3.44472 -0.157027 58.9137 1.63154 1.02471 114.549 29.8406 -15.8595 1.57809e-006 3.51063e-007 -3.33888e-006 18.8633 17.0264 -2.74793 -6.3232e-006 4.48841e-006 -3 8.02887 -4.95089 0.697422 -52.0845 2.78173 -2.84931 -118.47 27.6191 20.8515 5.47181e-006 -1.32378e-006 6.72415e-006 -16.8675 24.8229 4.64528 1.41058e-005 1.69119e-005 3 -8.02889 -4.95085 -0.697389 171.937 49.2617 4.73539 180 1.52576e-005 179.289 175.775 42.8666 -179.87 4.95125e-006 -4.94268e-006 0.670976 -24.9694 73.6336 25.9184 8.12669 25.2335 -3.48355 -178.63 48.6272 3.45947 -1.07169e-005 -4.64205e-006 -0.796702 -0.189777 -43.3701 0.861231 -4.18653e-007 -4.00229e-006 -1.09809 26.0953 74.7551 -27.6144 -8.146 25.373 3.30268 
